<svg id="Layer_1" data-name="Layer 1" xmlns="http://www.w3.org/2000/svg" xmlns:xlink="http://www.w3.org/1999/xlink" viewBox="0 0 206.94 228.58"><defs><style>.cls-1{fill:url(#linear-gradient);}</style><linearGradient id="linear-gradient" x1="289" y1="352.8" x2="486.52" y2="214.49" gradientUnits="userSpaceOnUse"><stop offset="0.04" stop-color="#f2981f"/><stop offset="0.4" stop-color="#833594"/><stop offset="0.76" stop-color="#0080c8"/><stop offset="0.93" stop-color="#394a83"/></linearGradient></defs><path class="cls-1" d="M410.1,366.58a2.76,2.76,0,0,1,2.14-3.19,2.7,2.7,0,0,1,3.25,2,2.83,2.83,0,0,1-2.1,3.41A2.78,2.78,0,0,1,410.1,366.58Zm-10.88,3.92a2.75,2.75,0,0,0,2.66-2.93,2.8,2.8,0,0,0-2.85-2.64,2.92,2.92,0,0,0-2.67,2.92A2.66,2.66,0,0,0,399.22,370.5ZM385,369.76a2.65,2.65,0,0,0,3.11-2.34,2.91,2.91,0,0,0-2.34-3.18,2.82,2.82,0,0,0-3.12,2.34A2.75,2.75,0,0,0,385,369.76Zm-13.92-3.15a2.72,2.72,0,0,0,3.5-1.87,2.84,2.84,0,0,0-1.78-3.43,2.74,2.74,0,0,0-3.46,1.7A2.82,2.82,0,0,0,371.06,366.61ZM357.91,361a2.81,2.81,0,0,0,3.79-1.25,2.72,2.72,0,0,0-1.17-3.66,2.78,2.78,0,0,0-3.7,1.08A2.75,2.75,0,0,0,357.91,361ZM346,353.21a2.78,2.78,0,0,0,3.43-4.38,2.93,2.93,0,0,0-3.89.49A2.64,2.64,0,0,0,346,353.21Zm-10.42-9.74a2.71,2.71,0,0,0,3.93.18,2.76,2.76,0,1,0-3.72-4.09A2.69,2.69,0,0,0,335.55,343.47ZM327,332.09a2.67,2.67,0,0,0,3.8.88,2.92,2.92,0,0,0,.92-3.84,2.81,2.81,0,0,0-3.79-.88A2.74,2.74,0,0,0,327,332.09Zm-6.52-12.7a2.7,2.7,0,0,0,3.67,1.49,2.87,2.87,0,0,0,1.5-3.58,2.75,2.75,0,0,0-3.53-1.55A2.82,2.82,0,0,0,320.43,319.39Zm-4.19-13.65a2.83,2.83,0,0,0,3.41,2.1,2.72,2.72,0,0,0,2-3.25,2.79,2.79,0,0,0-5.45,1.15Zm-1.66-14.18a2.76,2.76,0,0,0,2.92,2.67,2.81,2.81,0,0,0,2.65-2.86,2.92,2.92,0,0,0-2.93-2.66A2.65,2.65,0,0,0,314.58,291.56Zm.6-14.26a2.78,2.78,0,0,0,2.46,3.27,3,3,0,0,0,3.33-2.46,3,3,0,0,0-2.46-3.27A2.87,2.87,0,0,0,315.18,277.3Zm3.16-13.94a2.86,2.86,0,0,0,2,3.68,3,3,0,0,0,3.6-1.88,2.86,2.86,0,0,0-1.79-3.62A3,3,0,0,0,318.34,263.36Zm5.45-13.24a3.11,3.11,0,0,0,1.39,4.18,3,3,0,0,0,4-1.3,3.07,3.07,0,0,0-5.42-2.88Zm7.74-12.07a3.21,3.21,0,0,0,5.06,4,3.37,3.37,0,0,0-.56-4.48A3,3,0,0,0,331.53,238.05Zm9.7-10.58a3.27,3.27,0,0,0-.22,4.74,3.33,3.33,0,1,0,4.93-4.48A3.23,3.23,0,0,0,341.23,227.47Zm11.3-8.92a3.51,3.51,0,0,0-1.17,5,3.85,3.85,0,0,0,5.07,1.22,3.71,3.71,0,0,0,1.16-5A3.61,3.61,0,0,0,352.53,218.55Zm12.77-6.74a3.72,3.72,0,0,0-2.06,5.05,3.94,3.94,0,0,0,4.93,2,3.77,3.77,0,0,0,2.13-4.85A3.86,3.86,0,0,0,365.3,211.81Zm13.79-4.4a4,4,0,0,0-3,4.87,3.86,3.86,0,0,0,4.64,2.92,4,4,0,0,0-1.64-7.79Zm14.38-1.84a4.09,4.09,0,0,0-4,4.34,4.16,4.16,0,0,0,4.24,3.93,4.33,4.33,0,0,0,3.95-4.34A3.93,3.93,0,0,0,393.47,205.57Zm14.48.6a4.1,4.1,0,0,0-4.8,3.61,4.48,4.48,0,0,0,3.62,4.89,4.33,4.33,0,0,0,4.79-3.61A4.21,4.21,0,0,0,408,206.17Zm14.23,3.07a4.34,4.34,0,0,0-5.59,3,4.51,4.51,0,0,0,2.85,5.47A4.36,4.36,0,0,0,425,215,4.5,4.5,0,0,0,422.18,209.24Zm13.5,5.54a4.67,4.67,0,0,0-6.27,2.08,4.48,4.48,0,0,0,1.95,6,4.59,4.59,0,0,0,4.32-8.11ZM374.6,351.07a2.64,2.64,0,0,0,3.51-1.75,2.91,2.91,0,0,0-1.68-3.51,2.81,2.81,0,0,0-3.49,1.69A2.72,2.72,0,0,0,374.6,351.07Zm-12.89-6.15a2.7,2.7,0,0,0,3.81-.94,2.85,2.85,0,0,0-.89-3.8,2.89,2.89,0,0,0-3.79.93A2.64,2.64,0,0,0,361.71,344.92Zm-11.29-8.75a2.78,2.78,0,0,0,3.87-4,2.84,2.84,0,0,0-3.85,0A2.7,2.7,0,0,0,350.42,336.17Zm-9.15-11a2.78,2.78,0,0,0,4.64-3.08,2.72,2.72,0,0,0-3.74-.8A2.79,2.79,0,0,0,341.27,325.2Zm-6.52-12.71a2.75,2.75,0,0,0,1.45,1.59,2.81,2.81,0,0,0,3.63-1.54,2.7,2.7,0,0,0,.11-2.05,2.81,2.81,0,0,0-3.54-1.58A2.73,2.73,0,0,0,334.75,312.49Zm-3.65-13.81a2.67,2.67,0,0,0,3.16,2.3,2.75,2.75,0,1,0-.82-5.43A2.67,2.67,0,0,0,331.1,298.68Zm-.76-14.27a2.86,2.86,0,0,0,2.77,3.07,3,3,0,0,0,3.07-2.69,3.06,3.06,0,0,0-2.74-3.06A2.76,2.76,0,0,0,330.34,284.41Zm2.3-14.14a3.06,3.06,0,0,0,5.88,1.7,3.14,3.14,0,0,0-2-3.72A3,3,0,0,0,332.64,270.27Zm5.29-13.36a3.23,3.23,0,0,0,1.43,4.37,3.15,3.15,0,0,0,3-5.53A3.23,3.23,0,0,0,337.93,256.91Zm8.15-11.86a3.19,3.19,0,0,0,.41,4.71,3.47,3.47,0,0,0,4.64-.32,3.35,3.35,0,0,0-.31-4.63A3.3,3.3,0,0,0,346.08,245.05Zm10.49-9.88a3.34,3.34,0,0,0-.66,4.84,3.43,3.43,0,1,0,5.49-4.11A3.33,3.33,0,0,0,356.57,235.17Zm12.3-7.63a3.75,3.75,0,0,0-1.81,5.09,3.79,3.79,0,0,0,4.93,1.84,3.92,3.92,0,0,0,1.88-4.93A3.64,3.64,0,0,0,368.87,227.54Zm13.71-4.88a4.2,4.2,0,0,0-3.11,5.08,4.08,4.08,0,0,0,8-1.66A4.17,4.17,0,0,0,382.58,222.66Zm14.51-1.52a4.23,4.23,0,0,0-4.26,4.4,4.3,4.3,0,0,0,4.17,4.18,4.22,4.22,0,0,0,4.27-4.08A4.32,4.32,0,0,0,397.09,221.14Zm40.09,156.32a2.79,2.79,0,0,0-2.33-5.06,2.91,2.91,0,0,0-1.34,3.73A2.67,2.67,0,0,0,437.18,377.46Zm-13.35,5A2.67,2.67,0,0,0,425.7,379a2.89,2.89,0,0,0-3.43-1.87,2.74,2.74,0,0,0-1.91,3.36A2.82,2.82,0,0,0,423.83,382.48Zm-14,2.95a2.75,2.75,0,0,0,2.36-3.18,2.8,2.8,0,0,0-3.12-2.34,2.9,2.9,0,0,0-2.36,3.18A2.67,2.67,0,0,0,409.87,385.43Zm-14.22,1a2.79,2.79,0,0,0,0-5.57,2.7,2.7,0,0,0-2.79,2.65A2.86,2.86,0,0,0,395.65,386.43Zm-14.21-1.22a2.72,2.72,0,0,0,3.17-2.33,2.78,2.78,0,1,0-5.49-.84A2.72,2.72,0,0,0,381.44,385.21Zm-13.93-3.08a2.88,2.88,0,0,0,3.51-2,2.7,2.7,0,0,0-1.86-3.36,2.73,2.73,0,0,0-3.44,1.73A2.85,2.85,0,0,0,367.51,382.13Zm-13.24-5.29a2.71,2.71,0,0,0,3.7-1.31,2.78,2.78,0,1,0-5-2.41A2.73,2.73,0,0,0,354.27,376.84Zm-12.44-7a2.86,2.86,0,0,0,3.93-.87,2.77,2.77,0,0,0-4.6-3.09A2.84,2.84,0,0,0,341.83,369.84ZM330.67,361a2.72,2.72,0,0,0,3.93-.2,2.77,2.77,0,1,0-4.1-3.73A2.71,2.71,0,0,0,330.67,361Zm-9.89-10.27a2.84,2.84,0,0,0,4,.3,2.73,2.73,0,0,0,.3-3.84,2.69,2.69,0,0,0-3.81-.45A2.87,2.87,0,0,0,320.78,350.69ZM312.64,339a2.72,2.72,0,0,0,3.82.93,2.84,2.84,0,0,0,1-3.81,2.87,2.87,0,0,0-3.83-.93A2.7,2.7,0,0,0,312.64,339Zm-6.52-12.69a2.8,2.8,0,0,0,3.73,1.44,2.75,2.75,0,0,0,1.41-3.59,2.69,2.69,0,0,0-3.52-1.53A2.86,2.86,0,0,0,306.12,326.29Zm-4.42-13.57a2.72,2.72,0,0,0,3.39,2,2.83,2.83,0,0,0,2-3.37,2.87,2.87,0,0,0-3.39-2A2.71,2.71,0,0,0,301.7,312.72Zm-2.58-14a2.86,2.86,0,0,0,3.18,2.46,2.77,2.77,0,0,0-.55-5.51A2.87,2.87,0,0,0,299.12,298.69Zm-.3-14.26a2.69,2.69,0,0,0,2.65,2.89,2.88,2.88,0,0,0,2.92-2.65,2.83,2.83,0,0,0-2.64-2.89A2.74,2.74,0,0,0,298.82,284.43Zm1.45-14.2a3,3,0,0,0,2.43,3.43,2.85,2.85,0,0,0,3.31-2.33,3,3,0,0,0-2.27-3.4A2.85,2.85,0,0,0,300.27,270.23ZM304,256.45a2.8,2.8,0,0,0,1.76,3.7,3,3,0,0,0,3.76-1.77,2.92,2.92,0,0,0-5.52-1.93Zm5.65-13.12a3,3,0,0,0,1.32,4,2.87,2.87,0,0,0,3.86-1.26,3,3,0,0,0-1.2-3.92A2.83,2.83,0,0,0,309.67,243.33Zm7.58-12.1a2.8,2.8,0,0,0,.62,4.05,3,3,0,0,0,4.1-.61,3,3,0,0,0-.62-4.06A2.88,2.88,0,0,0,317.25,231.23Zm9-11.15a3.27,3.27,0,0,0,.15,4.62,3.13,3.13,0,0,0,4.45-.13,3.27,3.27,0,0,0,0-4.48A3.15,3.15,0,0,0,326.21,220.08Zm10.69-9.56a3.25,3.25,0,0,0-.65,4.69,3.48,3.48,0,0,0,4.73.67,3.4,3.4,0,0,0,.65-4.69A3.32,3.32,0,0,0,336.9,210.52Zm11.89-8a3.6,3.6,0,0,0-1.29,4.9,3.42,3.42,0,0,0,4.7,1.26,3.52,3.52,0,0,0-3.41-6.16Zm13-6.08a3.55,3.55,0,0,0-2.15,4.7,3.79,3.79,0,0,0,4.72,2.19,3.73,3.73,0,0,0,2.16-4.7A3.62,3.62,0,0,0,361.84,196.4Zm13.75-4.26a3.91,3.91,0,0,0-2.89,4.69,3.74,3.74,0,0,0,4.5,2.8,3.86,3.86,0,0,0,2.94-4.44A3.78,3.78,0,0,0,375.59,192.14Zm14.28-2.06a3.82,3.82,0,0,0-3.7,4.17,4.16,4.16,0,0,0,4.22,3.78,4,4,0,0,0,3.7-4.18A4,4,0,0,0,389.87,190.08Zm14.44-.08a4.17,4.17,0,0,0-4.44,3.92,4.08,4.08,0,0,0,3.78,4.33,4.38,4.38,0,0,0,4.44-3.82A3.93,3.93,0,0,0,404.31,190Zm14.32,2.05a4.08,4.08,0,0,0-5.12,3.2,4.52,4.52,0,0,0,3.2,5.16,4.26,4.26,0,0,0,5.1-3.11A4.32,4.32,0,0,0,418.63,192.05Zm13.89,4.14a4.44,4.44,0,0,0-3.24,8.27,4.68,4.68,0,0,0,5.76-2.59A4.2,4.2,0,0,0,432.52,196.19Zm13.16,6.12a4.38,4.38,0,0,0-6.25,1.71,4.85,4.85,0,0,0,1.69,6.27,4.56,4.56,0,0,0,6.19-1.62A4.61,4.61,0,0,0,445.68,202.31Zm12.14,8a4.75,4.75,0,0,0-5.87,7.47,5,5,0,0,0,6.68-.85A4.51,4.51,0,0,0,457.82,210.31ZM468.68,220a4.66,4.66,0,0,0-6.88-.2,5.16,5.16,0,0,0-.22,6.95,4.9,4.9,0,0,0,7.1-6.75ZM479,234.93a4.94,4.94,0,0,0-1-3.77,5.08,5.08,0,0,0-7.14-1.12,5,5,0,0,0-1.12,7,5.1,5.1,0,0,0,3.3,1.94,5,5,0,0,0,3.73-.74A5.14,5.14,0,0,0,479,234.93Zm6.69,8.68a5,5,0,0,0-6.9-2.32,5.46,5.46,0,0,0-2.4,7,5.21,5.21,0,0,0,9.3-4.7ZM392.08,402.4a2.69,2.69,0,0,0,2.89-2.64,2.9,2.9,0,0,0-2.68-2.93,2.82,2.82,0,0,0-2.9,2.64A2.78,2.78,0,0,0,392.08,402.4ZM377.86,401a2.76,2.76,0,0,0,3.21-2.33,2.82,2.82,0,0,0-2.31-3.17,2.89,2.89,0,0,0-3.21,2.33A2.7,2.7,0,0,0,377.86,401Zm-13.95-3.13a2.85,2.85,0,0,0,3.5-2,2.72,2.72,0,0,0-1.92-3.36,2.88,2.88,0,0,0-3.45,1.84A2.7,2.7,0,0,0,363.91,397.85Zm-13.42-4.93a2.68,2.68,0,0,0,3.68-1.44,2.9,2.9,0,0,0-1.43-3.66,2.73,2.73,0,0,0-3.64,1.34A2.84,2.84,0,0,0,350.49,392.92Zm-12.66-6.63a2.72,2.72,0,0,0,3.82-.94,2.87,2.87,0,0,0-.95-3.84,2.84,2.84,0,0,0-3.82.94A2.75,2.75,0,0,0,337.83,386.29Zm-11.78-8.09a2.8,2.8,0,0,0,3.95-.52,2.76,2.76,0,0,0-.51-3.86,3,3,0,0,0-3.95.5A2.66,2.66,0,0,0,326.05,378.2Zm-10.7-9.48a2.78,2.78,0,1,0,4-3.91,2.7,2.7,0,0,0-3.86-.11A2.86,2.86,0,0,0,315.35,368.72ZM306,357.89a2.69,2.69,0,0,0,3.88.54,2.88,2.88,0,0,0,.54-3.93,2.8,2.8,0,0,0-3.88-.54A2.77,2.77,0,0,0,306,357.89Zm-8-11.87a2.78,2.78,0,1,0,4.81-2.8,2.93,2.93,0,0,0-3.86-1A2.67,2.67,0,0,0,298.05,346Zm-6.51-12.73a2.88,2.88,0,0,0,3.77,1.43,2.69,2.69,0,0,0,1.35-3.61,2.72,2.72,0,0,0-3.54-1.52A2.84,2.84,0,0,0,291.54,333.29Zm-4.67-13.51a2.65,2.65,0,0,0,3.37,2,2.93,2.93,0,0,0,2-3.47,2.75,2.75,0,0,0-3.37-1.94A2.8,2.8,0,0,0,286.87,319.78Zm-3-14a2.75,2.75,0,0,0,3.18,2.35,2.79,2.79,0,0,0-.84-5.52A2.72,2.72,0,0,0,283.88,305.8Zm-1.27-14.23a2.82,2.82,0,0,0,2.92,2.72,2.78,2.78,0,0,0,2.65-2.86,3,3,0,0,0-2.93-2.72A2.65,2.65,0,0,0,282.61,291.57Zm.3-14.3a3,3,0,0,0,2.76,3.21,2.79,2.79,0,0,0,3.05-2.63,2.83,2.83,0,0,0-2.49-3.19A3,3,0,0,0,282.91,277.27Zm2.39-14.12a2.79,2.79,0,0,0,2.15,3.5,3.08,3.08,0,0,0,3.55-2.19,2.88,2.88,0,0,0-2.12-3.49A3,3,0,0,0,285.3,263.15Zm4.11-13.71a2.87,2.87,0,0,0,1.74,3.76,2.93,2.93,0,0,0,2-5.5A2.87,2.87,0,0,0,289.41,249.44Zm5.73-13.11a3,3,0,0,0,1.32,4,2.89,2.89,0,0,0,3.87-1.29,3.09,3.09,0,0,0-1.26-4A2.79,2.79,0,0,0,295.14,236.33ZM302.48,224a2.87,2.87,0,0,0,.79,4.1,3,3,0,0,0,4-.78,2.84,2.84,0,0,0-.65-4A3,3,0,0,0,302.48,224Zm8.91-11.2a2.85,2.85,0,0,0,.21,4.12,3,3,0,0,0,4.15-.22,3,3,0,0,0-.21-4.12A2.9,2.9,0,0,0,311.39,212.84Zm10.08-10.17a3.08,3.08,0,0,0-.26,4.37,3,3,0,0,0,4.28.25,3.21,3.21,0,0,0,.26-4.38A2.92,2.92,0,0,0,321.47,202.67Zm11.22-8.93a3.3,3.3,0,0,0-.8,4.58,3.14,3.14,0,0,0,4.39.76,3.1,3.1,0,0,0,1-4.34A3.34,3.34,0,0,0,332.69,193.74Zm12.39-7.28a3.24,3.24,0,0,0-1.53,4.48,3.52,3.52,0,0,0,4.55,1.55,3.37,3.37,0,1,0-3-6Zm13.17-5.76a3.49,3.49,0,0,0-2.14,4.54,3.55,3.55,0,0,0,4.48,2.1,3.65,3.65,0,0,0,2.15-4.53A3.4,3.4,0,0,0,358.25,180.7ZM372,176.56a3.78,3.78,0,0,0-2.8,4.51,3.58,3.58,0,0,0,4.35,2.67,3.77,3.77,0,0,0,2.83-4.3A3.59,3.59,0,0,0,372,176.56Zm14.23-2.29a3.69,3.69,0,0,0-3.48,4.18,4,4,0,0,0,4.15,3.45,3.74,3.74,0,0,0,3.5-4A3.93,3.93,0,0,0,386.27,174.27Zm14.42-.44a3.84,3.84,0,0,0-4.13,3.77,4.13,4.13,0,0,0,3.84,4.18,4,4,0,1,0,.29-7.95Zm14.39,1.28a4.11,4.11,0,0,0-4.77,3.46,4.17,4.17,0,0,0,3.44,4.7,4.28,4.28,0,0,0,4.76-3.45A4,4,0,0,0,415.08,175.11Zm14.17,3a4.4,4.4,0,0,0-5.39,3,4.19,4.19,0,0,0,2.95,5.18,4.44,4.44,0,0,0,5.32-2.84A4.16,4.16,0,0,0,429.25,178.13ZM442.9,183a4.28,4.28,0,0,0-5.87,2.3,4.63,4.63,0,0,0,2.29,5.83,4.35,4.35,0,0,0,5.8-2.13A4.53,4.53,0,0,0,442.9,183Zm12.92,6.6a4.49,4.49,0,0,0-6.31,1.55,4.73,4.73,0,0,0,1.57,6.33,4.68,4.68,0,0,0,6.31-1.55A4.54,4.54,0,0,0,455.82,189.59Zm12.06,8.1a4.8,4.8,0,0,0-6.75.89,4.71,4.71,0,0,0,.88,6.58,5,5,0,0,0,6.72-.86A4.52,4.52,0,0,0,467.88,197.69Zm11,9.51a4.9,4.9,0,1,0-7,6.89,4.76,4.76,0,0,0,6.79.19A5.05,5.05,0,0,0,478.9,207.2Zm9.59,11a4.89,4.89,0,0,0-7-1,5.25,5.25,0,0,0-1,7.14,5.1,5.1,0,0,0,7,1A5,5,0,0,0,488.49,218.18ZM354,312.34a2.76,2.76,0,0,0,3.86,1,2.74,2.74,0,0,0-2.66-4.78A2.73,2.73,0,0,0,354,312.34ZM348.9,298.8a2.79,2.79,0,1,0,2.28-3.28A2.76,2.76,0,0,0,348.9,298.8Zm-1.12-14.46a3.06,3.06,0,0,0,6.1.54,3.08,3.08,0,0,0-2.66-3.25A3,3,0,0,0,347.78,284.34ZM351,270.11a3.27,3.27,0,0,0,1.94,4.31,3.24,3.24,0,0,0,2.47-6A3.24,3.24,0,0,0,351,270.11Zm7.24-12.75a3.61,3.61,0,0,0,.67,5.15,3.56,3.56,0,0,0,4.52-5.49A3.62,3.62,0,0,0,358.23,257.36Zm10.87-10a3.69,3.69,0,0,0-.91,5.3,3.69,3.69,0,0,0,6.15-4.08A3.72,3.72,0,0,0,369.1,247.41Zm13.3-6.51a4,4,0,0,0-2.66,5.2,4,4,0,0,0,7.71-2.28A4,4,0,0,0,382.4,240.9Zm14.71-2.14a4.15,4.15,0,0,0-4.23,4.35,4.29,4.29,0,0,0,4.1,4.13,4.24,4.24,0,0,0,4.23-4A4.18,4.18,0,0,0,397.11,238.76Zm14.79,2.08a4.5,4.5,0,0,0-5.76,3.16,4.51,4.51,0,0,0,8.58,2.77A4.53,4.53,0,0,0,411.9,240.84Zm13.49,6.62a4.59,4.59,0,0,0-6.64,1.34,4.85,4.85,0,0,0,1.17,6.42,4.79,4.79,0,0,0,6.47-1.08A4.63,4.63,0,0,0,425.39,247.46Z" transform="translate(-282.61 -173.82)"/></svg>